
<svg
  version="1.0"
  xmlns="http://www.w3.org/2000/svg"
  xmlns:xlink="http://www.w3.org/1999/xlink"
  width="2400"
  height="1800"
>
  
  <rect
    x="0"
    y="0"
    width="100%"
    height="100%"
    fill="#ffffff"
    fill-opacity="1"
  ></rect>
  <svg
    version="1.0"
    xmlns="http://www.w3.org/2000/svg"
    xmlns:xlink="http://www.w3.org/1999/xlink"
    x="0"
    y="0"
    width="2400"
    height="1800"
    viewBox="0 0 340.000000 250.000000"
    preserveAspectRatio="xMidYMid meet"
    color-interpolation-filters="sRGB"
  >
    <defs><linearGradient id="92" x1="0%" y1="0%" x2="100%" y2="0%"><stop offset="0%" stop-color="#fa71cd"/> <stop offset="100%" stop-color="#9b59b6"/></linearGradient><linearGradient id="93" x1="0%" y1="0%" x2="100%" y2="0%"><stop offset="0%" stop-color="#f9d423"/> <stop offset="100%" stop-color="#f83600"/></linearGradient><linearGradient id="94" x1="0%" y1="0%" x2="100%" y2="0%"><stop offset="0%" stop-color="#0064d2"/> <stop offset="100%" stop-color="#1cb0f6"/></linearGradient><linearGradient id="95" x1="0%" y1="0%" x2="100%" y2="0%"><stop offset="0%" stop-color="#f00978"/> <stop offset="100%" stop-color="#3f51b1"/></linearGradient><linearGradient id="96" x1="0%" y1="0%" x2="100%" y2="0%"><stop offset="0%" stop-color="#7873f5"/> <stop offset="100%" stop-color="#ec77ab"/></linearGradient><linearGradient id="97" x1="0%" y1="0%" x2="100%" y2="0%"><stop offset="0%" stop-color="#f9d423"/> <stop offset="100%" stop-color="#e14fad"/></linearGradient><linearGradient id="98" x1="0%" y1="0%" x2="100%" y2="0%"><stop offset="0%" stop-color="#009efd"/> <stop offset="100%" stop-color="#2af598"/></linearGradient><linearGradient id="99" x1="0%" y1="0%" x2="100%" y2="0%"><stop offset="0%" stop-color="#ffcc00"/> <stop offset="100%" stop-color="#00b140"/></linearGradient><linearGradient id="100" x1="0%" y1="0%" x2="100%" y2="0%"><stop offset="0%" stop-color="#d51007"/> <stop offset="100%" stop-color="#ff8177"/></linearGradient><linearGradient id="102" x1="0%" y1="0%" x2="100%" y2="0%"><stop offset="0%" stop-color="#a2b6df"/> <stop offset="100%" stop-color="#0c3483"/></linearGradient><linearGradient id="103" x1="0%" y1="0%" x2="100%" y2="0%"><stop offset="0%" stop-color="#7ac5d8"/> <stop offset="100%" stop-color="#eea2a2"/></linearGradient><linearGradient id="104" x1="0%" y1="0%" x2="100%" y2="0%"><stop offset="0%" stop-color="#00ecbc"/> <stop offset="100%" stop-color="#007adf"/></linearGradient><linearGradient id="105" x1="0%" y1="0%" x2="100%" y2="0%"><stop offset="0%" stop-color="#b88746"/> <stop offset="100%" stop-color="#fdf5a6"/></linearGradient></defs> <g fill="#333333" class="icon-text-wrapper icon-svg-group iconsvg" transform="translate(78.91000366210938,95)"><g class="iconsvg-imagesvg" transform="translate(0,0)"><g><rect fill="#333333" fill-opacity="0" stroke-width="2" x="0" y="0" width="60" height="60" class="image-rect"/> <svg filter="url(#colors1004748367)" x="0" y="0" width="60" height="60" filtersec="colorsf7809228281" class="image-svg-svg primary" style="overflow: visible;"><svg xmlns="http://www.w3.org/2000/svg" xmlns:xlink="http://www.w3.org/1999/xlink" version="1.1" x="0px" y="0px" viewBox="5 5 90 90" xml:space="preserve"><path d="M50,5C25.187,5,5,25.187,5,50s20.187,45,45,45s45-20.187,45-45S74.813,5,50,5z M50,92C26.841,92,8,73.159,8,50  S26.841,8,50,8s42,18.841,42,42S73.159,92,50,92z"/><circle cx="43.442" cy="43.641" r="1.868"/><circle cx="56.695" cy="43.641" r="1.868"/><path d="M64.137,27.234h-2.669c-0.025-0.042-0.056-0.081-0.084-0.122l-2.55-6.702c-0.336-0.883-1.162-1.453-2.106-1.453  c0,0,0,0-0.001,0c-0.943,0-1.77,0.57-2.104,1.45l-2.604,6.827h-4c-0.025-0.042-0.056-0.081-0.084-0.122l-2.55-6.702  c-0.336-0.883-1.162-1.453-2.106-1.453c0,0,0,0-0.001,0c-0.943,0-1.77,0.57-2.104,1.45l-2.604,6.827h-2.594  c-0.015,0-0.028,0.007-0.043,0.008c-0.031-0.002-0.061-0.01-0.093-0.01H17.5c-0.828,0-1.5,0.671-1.5,1.5  c0,6.747,5.489,12.236,12.236,12.236h4.274l-2.715,17.057c-0.013,0.078-0.019,0.157-0.019,0.236c0,0.187,0.002,0.379,0.007,0.558  c-1.988,2.514-3.132,5.429-3.132,8.537c0,9.428,10.474,17.098,23.348,17.098s23.348-7.67,23.348-17.098  c0-3.045-1.098-5.904-3.011-8.384c0.009-0.236,0.021-0.471,0.021-0.711c0-0.079-0.006-0.158-0.019-0.235l-2.715-17.058h4.14  C78.511,40.968,84,35.479,84,28.732c0-0.829-0.672-1.5-1.5-1.5H64.159C64.152,27.232,64.144,27.234,64.137,27.234z M37.257,30.234  h1.276c0.781,1.297,2.562,2.164,4.746,2.164c2.182,0,3.96-0.867,4.74-2.164h3.962c0.781,1.297,2.562,2.164,4.746,2.164  c2.182,0,3.96-0.867,4.74-2.164h1.41l4.036,25.354c-4.257-3.279-10.262-5.33-16.914-5.33c-6.571,0-12.513,2.001-16.76,5.212  L37.257,30.234z M54.805,28.347l1.922-5.039l1.916,5.038c0,0,0,0.001,0.001,0.001s0,0.001,0,0.002l0.168,0.439  c-0.252,0.239-0.977,0.61-2.084,0.61c-1.204,0-1.956-0.435-2.142-0.667C54.674,28.617,54.75,28.49,54.805,28.347z M41.356,28.347  l1.922-5.039l1.916,5.038c0,0,0,0.001,0.001,0.001s0,0.001,0,0.002l0.168,0.439c-0.252,0.239-0.977,0.61-2.084,0.61  c-1.204,0-1.956-0.435-2.142-0.667C41.226,28.617,41.302,28.49,41.356,28.347z M19.122,30.232h14.961l-0.217,1.362H28.4  c-0.828,0-1.5,0.671-1.5,1.5s0.672,1.5,1.5,1.5h4.989l-0.537,3.374h-4.616C23.654,37.968,19.841,34.614,19.122,30.232z M50,81.453  c-11.22,0-20.348-6.324-20.348-14.098S38.78,53.258,50,53.258c7.563,0,14.162,2.88,17.669,7.134  c0.036,0.044,0.071,0.088,0.111,0.127c1.63,2.027,2.567,4.356,2.567,6.837C70.348,75.129,61.22,81.453,50,81.453z M80.878,30.232  c-0.719,4.382-4.532,7.736-9.114,7.736h-4.616l-0.537-3.374h5.124c0.828,0,1.5-0.671,1.5-1.5s-0.672-1.5-1.5-1.5h-5.601  l-0.217-1.362H80.878z"/><path d="M55.783,75.251c-0.34,0.335-0.781,0.635-1.317,0.895c-1.217,0.595-2.803,0.923-4.466,0.923  c-1.256,0-2.478-0.188-3.532-0.542c-0.961-0.324-1.746-0.767-2.271-1.28c-0.593-0.58-1.542-0.567-2.121,0.023  c-0.579,0.592-0.568,1.542,0.023,2.121c0.845,0.826,2.023,1.51,3.411,1.979c1.36,0.457,2.913,0.698,4.489,0.698  c2.11,0,4.165-0.437,5.778-1.226c0.825-0.399,1.536-0.889,2.11-1.455c0.59-0.582,0.598-1.531,0.016-2.122  C57.324,74.678,56.374,74.671,55.783,75.251z"/></svg></svg> <defs><filter id="colors1004748367"><feColorMatrix type="matrix" values="0 0 0 0 0.19921875  0 0 0 0 0.19921875  0 0 0 0 0.19921875  0 0 0 1 0" class="icon-feColorMatrix "/></filter> <filter id="colorsf7809228281"><feColorMatrix type="matrix" values="0 0 0 0 0.99609375  0 0 0 0 0.99609375  0 0 0 0 0.99609375  0 0 0 1 0" class="icon-fecolormatrix"/></filter> <filter id="colorsb2934519747"><feColorMatrix type="matrix" values="0 0 0 0 0  0 0 0 0 0  0 0 0 0 0  0 0 0 1 0" class="icon-fecolormatrix"/></filter></defs></g></g> <g transform="translate(67,6.385957717895508)"><g fill-rule="" class="tp-name iconsvg-namesvg"><g transform="scale(1)"><g><path d="M12.68 0.54L12.68 0.54Q10.11 0.54 8.26-0.2 6.41-0.94 5.2-2.28 3.99-3.62 3.41-5.43 2.83-7.25 2.83-9.42L2.83-9.42 2.83-25.11 7.43-25.11 7.43-9.86Q7.43-8.15 7.81-6.94 8.19-5.72 8.89-4.96 9.6-4.2 10.56-3.84 11.52-3.48 12.72-3.48L12.72-3.48Q13.91-3.48 14.89-3.84 15.87-4.2 16.58-4.96 17.28-5.72 17.66-6.94 18.04-8.15 18.04-9.86L18.04-9.86 18.04-25.11 22.64-25.11 22.64-9.42Q22.64-7.25 22.05-5.43 21.45-3.62 20.24-2.28 19.02-0.94 17.14-0.2 15.25 0.54 12.68 0.54ZM34.57-3.41L34.57-3.41Q37.03-3.41 38.15-4.24 39.28-5.07 39.28-6.59L39.28-6.59Q39.28-7.5 38.89-8.15 38.51-8.8 37.81-9.33 37.1-9.86 36.09-10.31 35.07-10.76 33.77-11.2L33.77-11.2Q32.46-11.67 31.25-12.23 30.04-12.79 29.11-13.62 28.19-14.46 27.63-15.62 27.07-16.78 27.07-18.41L27.07-18.41Q27.07-21.81 29.42-23.75 31.78-25.69 35.83-25.69L35.83-25.69Q38.19-25.69 40.02-25.16 41.85-24.64 42.9-24.02L42.9-24.02 41.49-20.33Q40.25-21.01 38.79-21.38 37.32-21.74 35.76-21.74L35.76-21.74Q33.91-21.74 32.88-20.98 31.85-20.22 31.85-18.84L31.85-18.84Q31.85-18.01 32.19-17.41 32.54-16.81 33.17-16.34 33.8-15.87 34.66-15.47 35.51-15.07 36.52-14.71L36.52-14.71Q38.3-14.06 39.69-13.39 41.09-12.72 42.05-11.79 43.01-10.87 43.51-9.62 44.02-8.37 44.02-6.59L44.02-6.59Q44.02-3.19 41.61-1.32 39.2 0.54 34.57 0.54L34.57 0.54Q33.01 0.54 31.72 0.34 30.43 0.14 29.44-0.14 28.44-0.43 27.72-0.74 26.99-1.05 26.56-1.3L26.56-1.3 27.9-5.04Q28.88-4.49 30.54-3.95 32.21-3.41 34.57-3.41ZM69.64 0L64.71 0Q64.2-1.49 63.66-2.93 63.12-4.38 62.61-5.91L62.61-5.91 52.03-5.91Q51.52-4.38 51-2.92 50.47-1.45 49.96 0L49.96 0 45.22 0Q46.63-4.02 47.9-7.43 49.17-10.83 50.38-13.88 51.59-16.92 52.79-19.67 53.99-22.43 55.25-25.11L55.25-25.11 59.57-25.11Q60.83-22.43 62.03-19.67 63.22-16.92 64.44-13.88 65.65-10.83 66.94-7.43 68.22-4.02 69.64 0L69.64 0ZM57.32-20.25L57.32-20.25Q56.49-18.33 55.42-15.58 54.35-12.83 53.19-9.6L53.19-9.6 61.45-9.6Q60.29-12.83 59.2-15.62 58.12-18.41 57.32-20.25ZM83.37 0.54L83.37 0.54Q80.54 0.54 78.3-0.33 76.05-1.2 74.49-2.88 72.93-4.57 72.1-6.99 71.27-9.42 71.27-12.57L71.27-12.57Q71.27-15.72 72.23-18.15 73.19-20.58 74.86-22.26 76.52-23.95 78.77-24.82 81.01-25.69 83.59-25.69L83.59-25.69Q85.14-25.69 86.41-25.45 87.68-25.22 88.62-24.93 89.57-24.64 90.18-24.31 90.8-23.99 91.05-23.84L91.05-23.84 89.71-20.11Q88.84-20.65 87.23-21.14 85.62-21.63 83.73-21.63L83.73-21.63Q82.1-21.63 80.69-21.07 79.28-20.51 78.24-19.38 77.21-18.26 76.63-16.56 76.05-14.86 76.05-12.61L76.05-12.61Q76.05-10.62 76.5-8.95 76.96-7.28 77.9-6.07 78.84-4.86 80.29-4.18 81.74-3.51 83.77-3.51L83.77-3.51Q86.2-3.51 87.72-4 89.24-4.49 90.07-4.93L90.07-4.93 91.3-1.2Q90.87-0.91 90.13-0.62 89.38-0.33 88.37-0.05 87.36 0.22 86.09 0.38 84.82 0.54 83.37 0.54ZM98.41-12.57L98.41-12.57Q98.41-10.51 98.91-8.82 99.42-7.14 100.38-5.96 101.34-4.78 102.72-4.13 104.09-3.48 105.83-3.48L105.83-3.48Q107.54-3.48 108.91-4.13 110.29-4.78 111.25-5.96 112.21-7.14 112.72-8.82 113.22-10.51 113.22-12.57L113.22-12.57Q113.22-14.64 112.72-16.32 112.21-18.01 111.25-19.18 110.29-20.36 108.91-21.01 107.54-21.67 105.83-21.67L105.83-21.67Q104.09-21.67 102.72-21.01 101.34-20.36 100.38-19.17 99.42-17.97 98.91-16.3 98.41-14.64 98.41-12.57ZM118.01-12.57L118.01-12.57Q118.01-9.35 117.05-6.88 116.09-4.42 114.44-2.77 112.79-1.12 110.58-0.29 108.37 0.54 105.87 0.54L105.87 0.54Q103.37 0.54 101.14-0.29 98.91-1.12 97.26-2.77 95.62-4.42 94.64-6.88 93.66-9.35 93.66-12.57L93.66-12.57Q93.66-15.8 94.64-18.24 95.62-20.69 97.3-22.36 98.99-24.02 101.2-24.86 103.41-25.69 105.87-25.69L105.87-25.69Q108.33-25.69 110.54-24.86 112.75-24.02 114.4-22.36 116.05-20.69 117.03-18.24 118.01-15.8 118.01-12.57Z" transform="translate(-2.8299999237060547, 25.690000534057617)"/></g> <g fill="#2966cc" transform="translate(0,29.230003356933594)"><g transform="scale(0.98782)"><path d="M2.37 0L2.37-18.22 4.15-18.22 4.15 0 2.37 0ZM22.79 0L21.29 0Q20.79-0.92 20.02-2.16 19.24-3.39 18.32-4.8 17.4-6.2 16.38-7.69 15.35-9.17 14.34-10.58 13.33-11.99 12.37-13.22 11.41-14.46 10.65-15.35L10.65-15.35 10.65 0 8.88 0 8.88-18.22 10.3-18.22Q11.65-16.72 13.18-14.76 14.72-12.8 16.19-10.76 17.66-8.73 18.94-6.78 20.21-4.84 21.03-3.39L21.03-3.39 21.03-18.22 22.79-18.22 22.79 0ZM27.52 0L27.52-18.22 29.31-18.22 29.31 0 27.52 0ZM32.15-18.22L45.61-18.22 45.61-16.67 39.77-16.67 39.77 0 37.98 0 37.98-16.67 32.15-16.67 32.15-18.22ZM48.45 0L48.45-18.22 50.23-18.22 50.23 0 48.45 0ZM69.19 0L67.22 0Q66.72-1.34 66.27-2.58 65.82-3.81 65.4-4.99L65.4-4.99 56.54-4.99Q56.1-3.81 55.65-2.58 55.2-1.34 54.73 0L54.73 0 52.86 0Q53.91-2.84 54.83-5.3 55.75-7.75 56.64-9.95 57.52-12.14 58.38-14.17 59.25-16.19 60.22-18.22L60.22-18.22 61.8-18.22Q62.77-16.19 63.64-14.17 64.51-12.14 65.39-9.95 66.27-7.75 67.19-5.3 68.11-2.84 69.19 0L69.19 0ZM60.96-16.17L60.96-16.17Q59.96-13.91 59.03-11.57 58.09-9.23 57.1-6.52L57.1-6.52 64.85-6.52Q63.85-9.23 62.9-11.57 61.96-13.91 60.96-16.17ZM68.56-18.22L82.02-18.22 82.02-16.67 76.18-16.67 76.18 0 74.39 0 74.39-16.67 68.56-16.67 68.56-18.22ZM84.85 0L84.85-18.22 86.64-18.22 86.64 0 84.85 0ZM89.27-18.22L91.27-18.22Q92.06-15.88 92.79-13.79 93.53-11.7 94.24-9.74 94.95-7.78 95.68-5.9 96.42-4.02 97.26-2.1L97.26-2.1Q98.08-4 98.83-5.88 99.58-7.75 100.3-9.71 101.02-11.67 101.74-13.77 102.47-15.88 103.26-18.22L103.26-18.22 105.15-18.22Q103.94-14.77 102.98-12.17 102.02-9.57 101.19-7.47 100.36-5.36 99.61-3.59 98.87-1.81 98.05 0L98.05 0 96.39 0Q95.58-1.81 94.82-3.59 94.05-5.36 93.23-7.47 92.4-9.57 91.44-12.17 90.48-14.77 89.27-18.22L89.27-18.22ZM118.97 0L107.78 0 107.78-18.22 118.29-18.22 118.29-16.67 109.56-16.67 109.56-10.33 117.35-10.33 117.35-8.81 109.56-8.81 109.56-1.55 118.97-1.55 118.97 0Z" transform="translate(-2.369999885559082, 18.219999313354492)"/></g></g></g></g> </g></g><defs v-gra="od"/>
  </svg>
</svg>


